<?xml version="1.0" encoding="UTF-8" standalone="no"?>
<!-- Created with Inkscape (http://www.inkscape.org/) -->

<svg
   width="210mm"
   height="297mm"
   viewBox="0 0 210 297"
   version="1.1"
   id="svg5"
   inkscape:version="1.1.2 (0a00cf5339, 2022-02-04)"
   sodipodi:docname="logo.svg"
   xmlns:inkscape="http://www.inkscape.org/namespaces/inkscape"
   xmlns:sodipodi="http://sodipodi.sourceforge.net/DTD/sodipodi-0.dtd"
   xmlns="http://www.w3.org/2000/svg"
   xmlns:svg="http://www.w3.org/2000/svg">
  <sodipodi:namedview
     id="namedview7"
     pagecolor="#ffffff"
     bordercolor="#666666"
     borderopacity="1.0"
     inkscape:pageshadow="2"
     inkscape:pageopacity="0.0"
     inkscape:pagecheckerboard="0"
     inkscape:document-units="mm"
     showgrid="false"
     inkscape:zoom="2"
     inkscape:cx="334.75"
     inkscape:cy="657.25"
     inkscape:window-width="1850"
     inkscape:window-height="1016"
     inkscape:window-x="0"
     inkscape:window-y="0"
     inkscape:window-maximized="1"
     inkscape:current-layer="layer1" />
  <defs
     id="defs2" />
  <g
     inkscape:label="Layer 1"
     inkscape:groupmode="layer"
     id="layer1">
    <g
       id="g8098"
       transform="translate(0.07470472)">
      <path
         id="path1410"
         style="fill:#9a009f;stroke:none;stroke-width:0.876322;stroke-linecap:round;stroke-opacity:1;fill-opacity:1"
         d="m 121.32529,177.95369 c -0.004,0.0368 -3.78843,-0.15736 -3.78843,-0.15736 -0.0397,-0.003 1.92942,-2.41255 1.92942,-2.41255 z"
         sodipodi:nodetypes="cccc" />
      <g
         id="g7890"
         transform="matrix(0.66120117,0,0,0.66120117,33.384826,68.324945)"
         style="stroke-width:3.0248;stroke-miterlimit:4;stroke-dasharray:none">
        <rect
           style="fill:none;fill-opacity:1;stroke:#9a009f;stroke-width:3.0248;stroke-linecap:round;stroke-miterlimit:4;stroke-dasharray:none;stroke-opacity:1"
           id="rect2634"
           width="24.209887"
           height="24.79487"
           x="106.24732"
           y="142.21347"
           ry="8.1958275"
           transform="rotate(-0.10886417)" />
        <g
           id="g5457"
           transform="matrix(0.65120364,0,0,0.65120364,27.889501,68.258984)"
           style="stroke-width:4.64493;stroke-miterlimit:4;stroke-dasharray:none;fill:none;stroke:#9a009f;stroke-opacity:1">
          <rect
             style="fill:none;fill-opacity:1;stroke:#9a009f;stroke-width:4.64493;stroke-linecap:round;stroke-miterlimit:4;stroke-dasharray:none;stroke-opacity:1"
             id="rect4339-6-2-6"
             width="0.27801919"
             height="26.121403"
             x="191.92874"
             y="-18.087687"
             ry="0.13900959"
             transform="rotate(45)" />
          <rect
             style="fill:none;fill-opacity:1;stroke:#9a009f;stroke-width:4.64493;stroke-linecap:round;stroke-miterlimit:4;stroke-dasharray:none;stroke-opacity:1"
             id="rect4339-6-2-6-1"
             width="0.27801919"
             height="26.121403"
             x="4.8879762"
             y="179.00706"
             ry="0.13900959"
             transform="rotate(-45)" />
        </g>
      </g>
    </g>
    <g
       id="g6331"
       transform="matrix(0.58594228,0,0,0.58594228,41.814876,71.832674)"
       style="stroke-width:12;stroke-miterlimit:4;stroke-dasharray:none;fill:#cccccc;fill-opacity:1">
      <path
         style="color:#000000;fill:#cccccc;stroke-width:2;stroke-linecap:round;stroke-miterlimit:4;stroke-dasharray:none;fill-opacity:1"
         d="m 149.45864,156.46587 c -1.41904,0 -2.63867,1.21968 -2.63867,2.63867 v 18.24833 c 0,1.41904 1.21968,2.63867 2.63867,2.63867 1.41905,0 2.64062,-1.21968 2.64062,-2.63867 v -18.24833 c 0,-1.41904 -1.22164,-2.63867 -2.64062,-2.63867 z"
         id="rect4339-6-2-6-9-3"
         sodipodi:nodetypes="sssssss" />
      <path
         style="color:#000000;fill:#cccccc;stroke-width:12;stroke-linecap:round;stroke-miterlimit:4;stroke-dasharray:none;fill-opacity:1"
         d="m 161.22245,159.10454 c 0,-1.41904 -1.21969,-2.63867 -2.63867,-2.63867 h -18.24833 c -1.41904,0 -2.63867,1.21968 -2.63867,2.63867 0,1.41905 1.21968,2.64063 2.63867,2.64063 h 18.24833 c 1.41904,0 2.63867,-1.22164 2.63867,-2.64063 z"
         id="rect4339-6-2-6-9-3-6"
         sodipodi:nodetypes="sssssss" />
    </g>
    <g
       id="g6436"
       transform="matrix(0.58594228,0,0,0.58594228,46.110484,71.418075)" />
    <g
       id="g8869"
       transform="translate(3.7041668)"
       style="fill:#cccccc">
      <path
         id="rect4339-6-2-6-9-3-2"
         style="color:#000000;fill:#cccccc;stroke-width:1;stroke-linecap:round;-inkscape-stroke:none"
         d="m 76.23979,157.17343 c -1.41904,0 -2.6386,1.21961 -2.6386,2.6386 v 18.24798 c 0,1.41904 1.21961,2.63911 2.6386,2.63911 0.06748,0 0.134543,-0.004 0.201022,-0.009 0.06655,0.005 0.133459,0.009 0.20102,0.009 h 8.286083 c 1.419042,0 2.638599,-1.22167 2.638599,-2.64066 0,-1.41904 -1.219618,-2.63912 -2.638599,-2.63912 h -6.047459 v -3.84369 h 5.846353 c 1.419042,0 2.6386,-1.22168 2.6386,-2.64067 0,-1.41904 -1.219618,-2.63859 -2.6386,-2.63859 h -5.846353 v -3.8437 h 6.047459 c 1.419042,0 2.638599,-1.22167 2.638599,-2.64066 0,-1.41904 -1.219618,-2.6386 -2.638599,-2.6386 h -8.286083 c -0.06756,0 -0.134469,0.003 -0.20102,0.009 -0.06648,-0.005 -0.133543,-0.009 -0.201022,-0.009 z"
         sodipodi:nodetypes="sssscssssccsssccsssscs"
         transform="matrix(0.58594228,0,0,0.58594228,46.110485,71.418074)" />
      <g
         id="g8534"
         transform="translate(32.420098,6.239856)"
         style="fill:#cccccc">
        <path
           style="color:#000000;fill:#cccccc;stroke-width:0.585942;stroke-linecap:round;-inkscape-stroke:none"
           d="m 44.24478,157.27278 c -0.831475,0 -1.546108,0.71467 -1.546108,1.54611 v 10.69247 c 0,0.83147 0.714662,1.54611 1.546108,1.54611 0.831482,0 1.547251,-0.71466 1.547251,-1.54611 v -10.69247 c 0,-0.83147 -0.71581,-1.54611 -1.547251,-1.54611 z"
           id="rect4339-6-2-6-9-3-4-7"
           sodipodi:nodetypes="sssssss" />
        <path
           style="color:#000000;fill:#cccccc;stroke-width:0.585942;stroke-linecap:round;-inkscape-stroke:none"
           d="m 52.545577,157.27278 c -0.831476,0 -1.546109,0.71467 -1.546109,1.54611 v 10.69247 c 0,0.83147 0.714663,1.54611 1.546109,1.54611 0.831481,0 1.547251,-0.71466 1.547251,-1.54611 v -10.69247 c 0,-0.83147 -0.715811,-1.54611 -1.547251,-1.54611 z"
           id="rect4339-6-2-6-9-3-4"
           sodipodi:nodetypes="sssssss" />
        <path
           style="color:#000000;fill:#cccccc;stroke-width:0.585942;stroke-linecap:round;-inkscape-stroke:none"
           d="m 43.357264,157.57967 c -0.660718,0.50478 -0.794721,1.50652 -0.289962,2.16722 l 8.185405,10.71404 c 0.504781,0.66072 1.506521,0.79473 2.167216,0.28997 0.660722,-0.50479 0.795633,-1.50722 0.290882,-2.16791 l -8.185419,-10.71405 c -0.504781,-0.66072 -1.507433,-0.79402 -2.168093,-0.28948 z"
           id="rect4339-6-2-6-9-3-4-8"
           sodipodi:nodetypes="sssssss" />
      </g>
    </g>
  </g>
</svg>
